<svg width="184" height="28" viewBox="0 0 184 28" fill="none" xmlns="http://www.w3.org/2000/svg">
<mask id="mask0_109_975" style="mask-type:luminance" maskUnits="userSpaceOnUse" x="0" y="0" width="184" height="28">
<path d="M183.058 0.475586H0.840958V27.5119H183.058V0.475586Z" fill="white"/>
</mask>
<g mask="url(#mask0_109_975)">
<path d="M13.6347 10.3065C13.6354 10.505 13.5586 10.6959 13.4207 10.8387L10.8292 13.5369C10.7596 13.6102 10.6758 13.6686 10.5831 13.7085C10.4418 13.7696 10.2851 13.786 10.1343 13.7553C9.98341 13.7246 9.84557 13.6484 9.73947 13.5369L8.60627 12.356C8.53573 12.2846 8.48 12.2 8.44228 12.107C8.40455 12.014 8.38557 11.9145 8.38646 11.8141C8.38734 11.7138 8.40809 11.6145 8.44746 11.5223C8.48683 11.4299 8.54407 11.3463 8.61585 11.2761C8.68767 11.206 8.77266 11.1508 8.8659 11.1136C8.95913 11.0764 9.0588 11.058 9.15917 11.0595C9.25955 11.0608 9.35864 11.0822 9.45076 11.122C9.54286 11.162 9.62624 11.2196 9.69602 11.2918L10.2843 11.9051L12.3309 9.77337C12.4365 9.66487 12.5721 9.59034 12.7204 9.55952C12.8686 9.5287 13.0227 9.54275 13.1628 9.60016C13.3029 9.65739 13.4227 9.75526 13.5068 9.88116C13.5909 10.0071 13.6354 10.1551 13.6347 10.3065Z" fill="#69C506"/>
<path d="M20.9218 9.89041C20.9223 10.089 20.846 10.2801 20.7088 10.4237L18.1174 13.122C18.0472 13.1948 17.9632 13.2527 17.8701 13.2925C17.7287 13.3532 17.5722 13.3693 17.4214 13.3387C17.2707 13.308 17.1328 13.232 17.0265 13.1208L15.8933 11.941C15.7559 11.7979 15.6792 11.6072 15.6792 11.4089C15.6792 11.2106 15.7559 11.0199 15.8933 10.8768C15.9635 10.8031 16.0481 10.7443 16.1418 10.7042C16.2354 10.6641 16.3362 10.6434 16.4382 10.6434C16.54 10.6434 16.6409 10.6641 16.7346 10.7042C16.8281 10.7443 16.9127 10.8031 16.983 10.8768L17.5725 11.4901L19.6191 9.35834C19.7243 9.24947 19.8598 9.17467 20.008 9.14349C20.1562 9.11231 20.3104 9.12628 20.4506 9.1835C20.5907 9.24082 20.7106 9.33878 20.7946 9.46477C20.8786 9.59076 20.9228 9.73901 20.9218 9.89041Z" fill="#69C506"/>
<path d="M20.0199 4.18882H15.5341V1.90594C15.5341 1.52659 15.3834 1.16279 15.115 0.894516C14.8467 0.626281 14.4828 0.475586 14.1033 0.475586C13.7238 0.475586 13.3599 0.626281 13.0915 0.894516C12.8232 1.16279 12.6725 1.52659 12.6725 1.90594V4.18882H8.18779C6.23932 4.18882 4.37059 4.96264 2.9928 6.34002C1.615 7.71741 0.840958 9.58556 0.840958 11.5334C0.840958 13.4814 1.615 15.3496 2.9928 16.727C4.37059 18.1043 6.23932 18.8782 8.18779 18.8782H20.0199C21.9685 18.8782 23.8371 18.1043 25.2149 16.727C26.5927 15.3496 27.3668 13.4814 27.3668 11.5334C27.3668 9.58556 26.5927 7.71741 25.2149 6.34002C23.8371 4.96264 21.9685 4.18882 20.0199 4.18882ZM20.0199 16.0174H8.18779C7.59845 16.0179 7.01478 15.9024 6.47013 15.6773C5.92552 15.4522 5.43061 15.122 5.01367 14.7055C4.59675 14.2891 4.26601 13.7947 4.04035 13.2503C3.81468 12.7061 3.69857 12.1227 3.69857 11.5334C3.69857 10.9443 3.81468 10.361 4.04035 9.81662C4.26601 9.27238 4.59675 8.7779 5.01367 8.36145C5.43061 7.94505 5.92552 7.61485 6.47013 7.38974C7.01478 7.16463 7.59845 7.04904 8.18779 7.04957H20.0199C21.2088 7.05063 22.3486 7.52351 23.1889 8.36429C24.0292 9.20506 24.5012 10.345 24.5012 11.5334C24.5012 12.722 24.0292 13.8619 23.1889 14.7027C22.3486 15.5435 21.2088 16.0163 20.0199 16.0174Z" fill="#111184"/>
<path d="M14.1043 27.0954C12.5256 27.0936 11.012 26.4659 9.89569 25.3499C8.7793 24.2338 8.15139 22.7208 8.14961 21.1425C8.14961 20.7631 8.30036 20.3994 8.56867 20.1311C8.83698 19.8628 9.20093 19.7121 9.58036 19.7121C9.95988 19.7121 10.3238 19.8628 10.5921 20.1311C10.8605 20.3994 11.0112 20.7631 11.0112 21.1425C11.0112 21.5486 11.0912 21.9506 11.2466 22.3258C11.4021 22.701 11.6299 23.0418 11.9172 23.329C12.2044 23.6161 12.5453 23.8439 12.9206 23.9992C13.2959 24.1547 13.6981 24.2346 14.1043 24.2346C14.5104 24.2346 14.9127 24.1547 15.288 23.9992C15.6633 23.8439 16.0042 23.6161 16.2914 23.329C16.5787 23.0418 16.8065 22.701 16.9619 22.3258C17.1173 21.9506 17.1974 21.5486 17.1974 21.1425C17.1974 20.7631 17.3481 20.3994 17.6164 20.1311C17.8848 19.8628 18.2487 19.7121 18.6282 19.7121C19.0077 19.7121 19.3716 19.8628 19.6399 20.1311C19.9082 20.3994 20.059 20.7631 20.059 21.1425C20.0572 22.7208 19.4293 24.2338 18.3129 25.3499C17.1966 26.4659 15.683 27.0936 14.1043 27.0954Z" fill="#111184"/>
<path d="M38.0067 5.55988H54.463V8.85006H47.8806V22.011H44.5891V8.85006H38.0067V5.55988Z" fill="#111184"/>
<path d="M61.2773 22.011V18.7207H64.4655L61.2773 10.4952L56.803 22.011H53.0492L59.6316 5.55988H62.9226L69.505 22.011H61.2773Z" fill="#69C506"/>
<path d="M89.2522 8.85006H76.0873V12.1403H89.2522V22.011H72.7963V18.7207H85.9607V15.4306H72.7963V5.55988H89.2522V8.85006Z" fill="#111184"/>
<path d="M92.5424 22.011V5.55988H95.8337V12.1403L104.216 5.55988H108.999L99.125 13.9911L108.999 22.011H104.164L95.8337 15.4305V22.011H92.5424Z" fill="#111184"/>
<path d="M112.29 22.011V5.55988H115.582L125.455 17.2298V5.55988H128.747V22.011H125.455L115.582 10.7008V22.011H112.29Z" fill="#111184"/>
<path d="M140.266 22.011V18.7207H143.454L140.266 10.4952L135.792 22.011H132.038L138.621 5.55988H141.911L148.493 22.011H140.266Z" fill="#69C506"/>
<path d="M146.668 5.55988H163.124V8.85006H156.542V22.011H153.251V8.85006H146.668V5.55988Z" fill="#111184"/>
<path d="M182.87 5.55988V8.85006H169.706V12.1403H182.87V15.4305H169.706V18.7207H182.87V22.011H166.415V5.55988H182.87Z" fill="#111184"/>
</g>
</svg>
