<svg width="143" height="40" viewBox="0 0 143 40" fill="none" xmlns="http://www.w3.org/2000/svg">
<g clip-path="url(#clip0_109_979)">
<path d="M3.24854 22.2213L2.3093 24.4052H1.39221L5.08297 15.8552H6.09857L9.78933 24.4052H8.83915L7.91112 22.2213H3.24854ZM3.58707 21.4023H7.56164L5.57423 16.7834L3.58707 21.4023ZM15.8429 24.4052H14.9912V21.0092C14.9912 19.9282 14.4234 19.2403 13.3752 19.2403C12.8727 19.2403 12.4578 19.415 12.1303 19.7753C11.8027 20.1248 11.639 20.5615 11.639 21.0857V24.4052H10.7871V18.5742H11.6281V19.6443C12.0865 18.8581 12.7526 18.465 13.6371 18.465C15.0348 18.465 15.8429 19.4041 15.8429 20.8018V24.4052ZM20.5289 16.4885C20.5289 16.1282 20.8127 15.8443 21.1622 15.8443C21.5226 15.8443 21.8064 16.1282 21.8064 16.4885C21.8064 16.838 21.5226 17.1219 21.1622 17.1219C20.8127 17.1219 20.5289 16.838 20.5289 16.4885ZM21.599 18.5742V24.4052H20.7364V18.5742H21.599ZM28.5753 24.4052H27.7236V21.0092C27.7236 19.9282 27.1557 19.2403 26.1076 19.2403C25.6051 19.2403 25.1902 19.415 24.8626 19.7753C24.535 20.1248 24.3714 20.5615 24.3714 21.0857V24.4052H23.5194V18.5742H24.3604V19.6443C24.8188 18.8581 25.485 18.465 26.3695 18.465C27.7671 18.465 28.5753 19.4041 28.5753 20.8018V24.4052ZM30.2114 16.4885C30.2114 16.1282 30.4952 15.8443 30.8447 15.8443C31.2051 15.8443 31.4889 16.1282 31.4889 16.4885C31.4889 16.838 31.2051 17.1219 30.8447 17.1219C30.4952 17.1219 30.2114 16.838 30.2114 16.4885ZM31.2815 18.5742V24.4052H30.4189V18.5742H31.2815ZM35.2441 24.4489C34.1412 24.4489 33.5952 23.9357 33.5952 22.8983V19.3276H32.5142V18.5742H33.5952V16.8926H34.436V18.5742H35.9102V19.3276H34.436V22.8765C34.436 23.4225 34.7526 23.6955 35.3859 23.6955C35.6152 23.6955 35.7901 23.6845 35.9102 23.6518V24.3615C35.7244 24.4161 35.4951 24.4489 35.2441 24.4489ZM37.1427 16.4885C37.1427 16.1282 37.4267 15.8443 37.7762 15.8443C38.1364 15.8443 38.4205 16.1282 38.4205 16.4885C38.4205 16.838 38.1364 17.1219 37.7762 17.1219C37.4267 17.1219 37.1427 16.838 37.1427 16.4885ZM38.213 18.5742V24.4052H37.3501V18.5742H38.213ZM42.0333 21.042H43.6496V20.6489C43.6496 19.6989 43.1581 19.2293 42.1644 19.2293C41.411 19.2293 40.8541 19.6115 40.4939 20.3759L39.7949 19.9828C40.2317 18.9782 41.0289 18.4759 42.1863 18.4759C43.2564 18.4759 43.9663 18.8799 44.3157 19.677C44.4356 19.961 44.4904 20.2776 44.4904 20.638V24.4052H43.6606V23.3788H43.6496C43.1691 24.1322 42.5139 24.5035 41.6841 24.5035C41.1053 24.5035 40.6247 24.3397 40.2646 24.023C39.9041 23.6955 39.7295 23.2805 39.7295 22.7891V22.7236C39.7295 22.1449 39.9586 21.7299 40.4173 21.4569C40.8869 21.184 41.4219 21.042 42.0333 21.042ZM43.6496 21.9483V21.7408H42.0226C41.3565 21.7299 40.6138 21.9592 40.5812 22.7236C40.5812 23.3679 41.1053 23.75 41.8368 23.75C42.3609 23.75 42.7977 23.5863 43.1362 23.2477C43.4748 22.9092 43.6496 22.4834 43.6496 21.9483ZM48.3282 24.4489C47.2253 24.4489 46.6794 23.9357 46.6794 22.8983V19.3276H45.5984V18.5742H46.6794V16.8926H47.5203V18.5742H48.9944V19.3276H47.5203V22.8765C47.5203 23.4225 47.837 23.6955 48.4703 23.6955C48.6996 23.6955 48.8742 23.6845 48.9944 23.6518V24.3615C48.8088 24.4161 48.5795 24.4489 48.3282 24.4489ZM50.2271 16.4885C50.2271 16.1282 50.5109 15.8443 50.8604 15.8443C51.2208 15.8443 51.5046 16.1282 51.5046 16.4885C51.5046 16.838 51.2208 17.1219 50.8604 17.1219C50.5109 17.1219 50.2271 16.838 50.2271 16.4885ZM51.2971 18.5742V24.4052H50.4345V18.5742H51.2971ZM52.508 18.5742H53.447L55.4453 23.4661L57.4762 18.5742H58.3826L55.893 24.4052H54.9866L52.508 18.5742ZM64.546 21.7518H59.8287C59.8615 22.3196 60.0799 22.8 60.4729 23.1822C60.8661 23.5644 61.3465 23.75 61.9143 23.75C62.7334 23.75 63.4212 23.2805 63.7597 22.5817L64.393 22.9966C63.9017 23.9575 62.9734 24.5035 61.9253 24.5035C61.0845 24.5035 60.3856 24.2087 59.8177 23.6299C59.2501 23.0403 58.966 22.3196 58.966 21.4788C58.966 20.6707 59.2392 19.9719 59.7851 19.3713C60.3311 18.7707 61.0079 18.4759 61.8051 18.4759C62.6787 18.4759 63.3558 18.7598 63.8361 19.3167C64.3166 19.8736 64.5569 20.5834 64.5569 21.4679C64.5569 21.5989 64.5569 21.6972 64.546 21.7518ZM59.8396 21.0311H63.6943C63.5742 19.9391 62.8971 19.2184 61.8051 19.2184C61.3139 19.2184 60.8771 19.3931 60.5057 19.7535C60.1344 20.1029 59.916 20.5288 59.8396 21.0311ZM71.2912 16.2374C70.7671 16.2374 70.3193 16.565 70.3193 17.4713V18.5742H71.8481V19.3167H70.3193V24.4052H69.4677V19.3167H68.3867V18.5742H69.4677V17.4931C69.4677 16.1828 70.1773 15.4839 71.2583 15.4839C71.4658 15.4839 71.6842 15.5167 71.9025 15.5931V16.3138C71.7498 16.2592 71.5424 16.2374 71.2912 16.2374ZM72.9988 18.5742H73.8396V19.7316C74.2435 18.8908 74.975 18.4868 75.7178 18.4868C75.8596 18.4868 75.9578 18.4868 76.0016 18.4977V19.4041C75.8596 19.3931 75.7504 19.3822 75.674 19.3822C75.0407 19.3822 74.582 19.6006 74.2873 20.0265C73.9923 20.4523 73.8505 20.9546 73.8505 21.5552V24.4052H72.9988V18.5742ZM79.5213 24.5035C78.6806 24.5035 77.9597 24.2087 77.3809 23.6299C76.8024 23.0512 76.5183 22.3414 76.5183 21.5115C76.5183 20.6489 76.8024 19.9282 77.3809 19.3495C77.9597 18.7707 78.6806 18.4759 79.5432 18.4759C80.3839 18.4759 81.0936 18.7707 81.6724 19.3495C82.2512 19.9282 82.546 20.6271 82.546 21.4679C82.546 22.3305 82.2512 23.0512 81.6724 23.6299C81.0936 24.2087 80.373 24.5035 79.5213 24.5035ZM79.5432 23.75C80.1546 23.75 80.6568 23.5317 81.061 23.0949C81.4649 22.6581 81.6724 22.134 81.6724 21.5115C81.6724 20.8891 81.4649 20.3431 81.061 19.8954C80.6568 19.4477 80.1436 19.2184 79.5213 19.2184C78.899 19.2184 78.3965 19.4368 77.9926 19.8736C77.5886 20.3104 77.3919 20.8454 77.3919 21.4679C77.3919 22.0903 77.5886 22.6363 77.9926 23.084C78.3965 23.5317 78.9206 23.75 79.5432 23.75ZM88.8617 24.4052H88.021V20.9874C88.021 19.9719 87.5185 19.2403 86.5142 19.2403C86.0226 19.2403 85.6296 19.4259 85.3346 19.7862C85.0399 20.1466 84.8979 20.5834 84.8979 21.0857V24.4052H84.0462V18.5742H84.8869V19.5897C85.3784 18.8362 85.9353 18.465 86.7651 18.465C87.6496 18.465 88.272 18.8581 88.6324 19.6334C89.1346 18.8581 89.8226 18.4759 90.6852 18.4759C92.0503 18.4759 92.8366 19.4041 92.8366 20.8018V24.4052H91.9846V21.0092C91.9846 19.961 91.4934 19.2512 90.4778 19.2512C89.9865 19.2512 89.5933 19.4259 89.2985 19.7753C89.0038 20.1138 88.8617 20.5397 88.8617 21.0529V24.4052Z" fill="#1B1818"/>
<path d="M142.024 15.5433H139.313C139.141 8.42522 133.321 2.70733 126.169 2.70733C119.017 2.70733 113.197 8.42522 113.025 15.5433H110.334C110.496 6.98607 117.542 -0.00626493 126.18 -0.00626493C130.332 -0.0131374 134.319 1.61309 137.283 4.52217C140.247 7.431 141.95 11.3893 142.024 15.5433Z" fill="#18484C"/>
<path d="M125.069 28.8983V31.6819C116.988 31.1229 110.575 24.4953 110.345 16.3217H113.068C113.217 20.7305 115.619 24.7475 119.22 26.9956C119.004 26.3308 118.851 25.5865 118.851 24.8534V7.11664H121.571V18.1365H124.29V20.86H121.571V24.8534C121.571 26.5303 122.625 27.9784 124.047 28.6475C124.368 28.7957 124.715 28.8809 125.069 28.8983Z" fill="#96CA4C"/>
<path d="M142.032 16.1926C141.914 22.1335 138.536 27.2728 133.616 29.8958V25.3981C133.616 25.2683 133.607 25.1543 133.607 25.026C133.607 22.7143 131.7 20.86 129.391 20.86H125.066V18.1375H128.634C130.942 18.1375 132.82 16.299 132.82 13.9886C132.82 11.6782 130.942 9.83966 128.634 9.83966H122.346V7.11664H128.634C132.447 7.11664 135.551 10.1843 135.551 14.0028C135.551 16.1109 134.604 17.9741 133.115 19.2407C134.717 20.2652 135.947 21.6381 136.077 24.4905C138.409 21.8973 139.316 18.3966 139.316 16.1926H142.032Z" fill="#96CA4C"/>
<path d="M111.948 35.2787H110.846C110.829 35.2787 110.812 35.2731 110.798 35.2624C110.784 35.252 110.774 35.2369 110.769 35.2201L110.419 33.9925C110.415 33.9803 110.415 33.9678 110.417 33.9556C110.419 33.9431 110.424 33.9317 110.432 33.9218C110.439 33.9118 110.449 33.9037 110.46 33.8981C110.472 33.8925 110.484 33.8897 110.496 33.8897H114.702C114.72 33.8897 114.737 33.8955 114.751 33.9062C114.765 33.9169 114.775 33.9319 114.78 33.949L115.118 35.1766C115.121 35.1888 115.122 35.2013 115.119 35.2135C115.117 35.2257 115.112 35.2372 115.104 35.2471C115.097 35.2571 115.087 35.2649 115.076 35.2705C115.065 35.2759 115.053 35.2789 115.04 35.2789H113.693C113.671 35.2789 113.651 35.2873 113.636 35.3026C113.621 35.3176 113.612 35.3382 113.612 35.3596V39.9117C113.612 39.9331 113.604 39.9537 113.589 39.9688C113.573 39.984 113.553 39.9924 113.532 39.9924H112.109C112.098 39.9924 112.088 39.9904 112.078 39.9863C112.068 39.9822 112.059 39.9764 112.052 39.969C112.044 39.9614 112.038 39.9525 112.034 39.9428C112.03 39.9329 112.028 39.9224 112.028 39.9117V35.3594C112.028 35.338 112.02 35.3176 112.005 35.3024C111.99 35.2873 111.969 35.2787 111.948 35.2787Z" fill="#333333"/>
<path d="M118.558 38.9096H116.069C116.055 38.9096 116.041 38.9135 116.029 38.9203C116.017 38.9275 116.007 38.9374 116 38.9496L115.413 39.9535C115.406 39.9657 115.396 39.9759 115.384 39.9828C115.372 39.9899 115.358 39.9935 115.344 39.9935H113.895C113.881 39.9935 113.867 39.9899 113.855 39.9828C113.843 39.9756 113.833 39.9654 113.826 39.9532C113.818 39.941 113.815 39.927 113.815 39.913C113.815 39.8988 113.818 39.8848 113.826 39.8725L117.246 33.9261C117.253 33.9139 117.263 33.9037 117.275 33.8966C117.287 33.8894 117.301 33.8856 117.315 33.8856C117.33 33.8856 117.343 33.8894 117.356 33.8966C117.368 33.9037 117.378 33.9139 117.385 33.9261L120.801 39.8728C120.808 39.885 120.812 39.899 120.812 39.913C120.812 39.9273 120.808 39.941 120.801 39.9532C120.794 39.9657 120.784 39.9759 120.772 39.9828C120.759 39.9899 120.745 39.9937 120.731 39.9937H119.283C119.269 39.9937 119.255 39.9899 119.243 39.983C119.23 39.9759 119.22 39.966 119.213 39.9537L118.627 38.9496C118.62 38.9374 118.61 38.9275 118.598 38.9203C118.585 38.9135 118.573 38.9096 118.558 38.9096ZM117.878 37.6614L117.385 36.8176C117.378 36.8056 117.368 36.7955 117.355 36.7886C117.343 36.7815 117.329 36.7779 117.315 36.7777C117.301 36.7777 117.287 36.7815 117.275 36.7883C117.263 36.7955 117.253 36.8054 117.246 36.8176L116.75 37.6611C116.743 37.6734 116.739 37.6874 116.739 37.7016C116.739 37.7159 116.742 37.7299 116.749 37.7421C116.756 37.7546 116.766 37.7647 116.779 37.7719C116.791 37.779 116.805 37.7828 116.819 37.7828H117.808C117.822 37.7828 117.836 37.779 117.848 37.7719C117.86 37.7647 117.871 37.7546 117.878 37.7423C117.885 37.7299 117.888 37.7159 117.888 37.7019C117.888 37.6876 117.885 37.6736 117.878 37.6614Z" fill="#333333"/>
<path d="M124.743 39.9924H121.169C121.148 39.9924 121.127 39.984 121.112 39.9688C121.097 39.9537 121.088 39.9331 121.088 39.9117V33.9742C121.088 33.9528 121.097 33.9325 121.112 33.9172C121.127 33.9022 121.148 33.8935 121.169 33.8935L122.592 33.8897C122.602 33.8897 122.613 33.8917 122.623 33.8958C122.632 33.8999 122.641 33.9057 122.649 33.9134C122.656 33.9207 122.662 33.9297 122.666 33.9396C122.67 33.9493 122.672 33.9597 122.672 33.9704V38.5182C122.672 38.5398 122.681 38.5602 122.696 38.5754C122.711 38.5904 122.732 38.5991 122.753 38.5991H125.117C125.13 38.5991 125.142 38.6019 125.154 38.6075C125.165 38.6134 125.175 38.6215 125.182 38.6317C125.19 38.6419 125.195 38.6536 125.197 38.6658C125.199 38.6783 125.198 38.691 125.194 38.7032L124.82 39.9352C124.815 39.9517 124.805 39.9662 124.791 39.9767C124.777 39.9868 124.76 39.9924 124.743 39.9924Z" fill="#333333"/>
<path d="M125.646 39.899V33.9704C125.646 33.949 125.655 33.9284 125.67 33.9134C125.685 33.8981 125.705 33.8897 125.727 33.8897H127.444C127.954 33.8897 128.405 33.9528 128.796 34.0788C129.181 34.2023 129.483 34.4044 129.702 34.6854C129.917 34.9664 130.025 35.3291 130.025 35.7735C130.023 36.1067 129.925 36.4322 129.743 36.711C129.587 36.9675 129.356 37.1691 129.08 37.2872C129.069 37.2916 129.06 37.2982 129.052 37.3066C129.044 37.3152 129.038 37.3252 129.034 37.3364C129.03 37.3473 129.029 37.359 129.03 37.3707C129.031 37.3822 129.035 37.3934 129.041 37.4036L130.521 39.8662C130.528 39.8787 130.532 39.8924 130.532 39.9069C130.532 39.9212 130.529 39.9352 130.522 39.9476C130.515 39.9601 130.505 39.9703 130.492 39.9777C130.48 39.9848 130.466 39.9886 130.452 39.9886H128.789C128.775 39.9886 128.76 39.9845 128.748 39.9772C128.735 39.9698 128.725 39.9593 128.718 39.9466L127.248 37.2529H127.23V39.899C127.23 39.9207 127.222 39.941 127.206 39.9563C127.191 39.9713 127.171 39.9797 127.149 39.9797H125.727C125.705 39.9797 125.685 39.9713 125.67 39.9563C125.655 39.941 125.646 39.9207 125.646 39.899ZM127.23 36.8095C127.23 36.8202 127.232 36.8308 127.237 36.8408C127.241 36.8507 127.247 36.8599 127.255 36.8675C127.262 36.8749 127.272 36.881 127.282 36.8848C127.292 36.8889 127.302 36.8909 127.313 36.8907C127.543 36.8851 127.737 36.8553 127.895 36.8013C128.057 36.7519 128.2 36.6509 128.3 36.5132C128.394 36.3813 128.441 36.2108 128.441 36.0013C128.441 35.6859 128.341 35.4711 128.14 35.3563C127.951 35.2497 127.675 35.1924 127.313 35.185C127.302 35.1848 127.292 35.1868 127.282 35.1909C127.271 35.1949 127.262 35.2008 127.255 35.2084C127.247 35.2161 127.241 35.225 127.237 35.2349C127.232 35.2448 127.23 35.2555 127.23 35.2662V36.8095Z" fill="#333333"/>
<path d="M135.237 34.3201C135.697 34.5838 136.081 34.9641 136.348 35.4228C136.62 35.8855 136.762 36.4134 136.759 36.9505C136.763 37.4865 136.621 38.0134 136.348 38.4741C136.079 38.9346 135.693 39.3161 135.231 39.5809C134.768 39.8453 134.244 39.9835 133.711 39.9815C133.177 39.9828 132.653 39.8443 132.19 39.5801C131.726 39.3156 131.34 38.9343 131.07 38.4741C130.796 38.0134 130.654 37.4865 130.659 36.9505C130.655 36.4134 130.797 35.8855 131.07 35.4228C131.339 34.9643 131.724 34.5843 132.185 34.3199C132.65 34.0549 133.176 33.9157 133.711 33.9157C134.246 33.9157 134.772 34.0551 135.237 34.3201ZM132.893 35.48C132.645 35.6376 132.441 35.8547 132.298 36.1115C132.155 36.3684 132.078 36.6567 132.075 36.9505C132.075 37.2429 132.152 37.5303 132.299 37.7836C132.439 38.0442 132.644 38.2649 132.893 38.425C133.136 38.5823 133.419 38.6658 133.709 38.6658C133.998 38.6658 134.282 38.5823 134.525 38.425C134.774 38.2641 134.98 38.0437 135.123 37.7836C135.267 37.5295 135.342 37.2424 135.342 36.9505C135.342 36.6583 135.267 36.3712 135.123 36.1171C134.981 35.8583 134.777 35.6394 134.529 35.48C134.285 35.3227 134.001 35.239 133.711 35.239C133.42 35.2375 133.136 35.3212 132.893 35.48Z" fill="#333333"/>
<path d="M137.392 39.912V33.9704C137.392 33.949 137.401 33.9284 137.416 33.9134C137.431 33.8981 137.451 33.8897 137.473 33.8897H139.322C139.753 33.8897 140.12 33.9213 140.424 33.9844C140.709 34.0376 140.981 34.1458 141.225 34.3025C141.45 34.453 141.63 34.6627 141.744 34.9091C141.865 35.1642 141.926 35.4752 141.926 35.8422C141.93 36.1225 141.868 36.3999 141.744 36.6509C141.622 36.8891 141.45 37.0976 141.238 37.2615C141.009 37.4392 140.748 37.5721 140.469 37.653C140.167 37.7449 139.852 37.7915 139.536 37.7904H139.061C139.051 37.7904 139.04 37.7927 139.03 37.7968C139.02 37.8009 139.012 37.8067 139.004 37.8144C138.997 37.8218 138.991 37.8307 138.987 37.8406C138.983 37.8503 138.981 37.861 138.981 37.8714V39.912C138.981 39.9336 138.972 39.954 138.957 39.9693C138.942 39.9843 138.921 39.9927 138.9 39.9927H137.473C137.451 39.9927 137.431 39.9843 137.416 39.9693C137.401 39.954 137.392 39.9336 137.392 39.912ZM138.981 35.2649V36.4152C138.981 36.4366 138.989 36.4572 139.004 36.4725C139.019 36.4875 139.04 36.4959 139.061 36.4959H139.436C139.727 36.4959 139.952 36.4386 140.11 36.3238C140.264 36.2121 140.342 36.0487 140.342 35.8338C140.342 35.6243 140.264 35.464 140.11 35.352C139.952 35.24 139.727 35.1843 139.436 35.1843H139.061C139.04 35.1843 139.019 35.1927 139.004 35.2079C138.989 35.2229 138.981 35.2436 138.981 35.2649Z" fill="#333333"/>
</g>
<defs>
<clipPath id="clip0_109_979">
<rect width="142" height="40" fill="white" transform="translate(0.849243 -0.00628662)"/>
</clipPath>
</defs>
</svg>
