<svg width="540" height="82" viewBox="0 0 540 82" fill="none" xmlns="http://www.w3.org/2000/svg">
<g clip-path="url(#clip0_109_888)">
<g clip-path="url(#clip1_109_888)">
<path d="M37.9852 29.8837C37.9872 30.4707 37.7602 31.0357 37.3522 31.4587L29.6862 39.4427C29.4802 39.6587 29.2332 39.8317 28.9582 39.9507C28.5402 40.1307 28.0772 40.1797 27.6312 40.0887C27.1842 39.9977 26.7772 39.7727 26.4632 39.4427L23.1112 35.9477C22.9022 35.7367 22.7372 35.4867 22.6252 35.2107C22.5142 34.9357 22.4582 34.6417 22.4602 34.3447C22.4632 34.0477 22.5242 33.7547 22.6412 33.4807C22.7572 33.2077 22.9272 32.9607 23.1392 32.7527C23.3512 32.5457 23.6032 32.3817 23.8792 32.2717C24.1542 32.1617 24.4492 32.1077 24.7462 32.1117C25.0432 32.1157 25.3362 32.1787 25.6092 32.2967C25.8812 32.4147 26.1282 32.5857 26.3342 32.7987L28.0742 34.6137L34.1292 28.3057C34.4412 27.9847 34.8422 27.7647 35.2812 27.6737C35.7192 27.5817 36.1752 27.6237 36.5892 27.7937C37.0042 27.9627 37.3582 28.2527 37.6072 28.6247C37.8562 28.9977 37.9872 29.4357 37.9852 29.8837Z" fill="#69C506"/>
<path d="M59.5412 28.6517C59.5432 29.2397 59.3172 29.8047 58.9122 30.2297L51.2462 38.2137C51.0382 38.4297 50.7902 38.6007 50.5142 38.7187C50.0962 38.8987 49.6332 38.9457 49.1872 38.8557C48.7412 38.7647 48.3332 38.5397 48.0192 38.2107L44.6672 34.7197C44.2602 34.2957 44.0342 33.7317 44.0342 33.1457C44.0342 32.5587 44.2602 31.9947 44.6672 31.5707C44.8752 31.3527 45.1252 31.1787 45.4022 31.0597C45.6792 30.9417 45.9772 30.8797 46.2782 30.8797C46.5802 30.8797 46.8782 30.9417 47.1552 31.0597C47.4322 31.1787 47.6822 31.3527 47.8902 31.5707L49.6342 33.3857L55.6882 27.0777C55.9992 26.7557 56.4002 26.5337 56.8392 26.4417C57.2772 26.3497 57.7332 26.3907 58.1482 26.5607C58.5622 26.7297 58.9172 27.0197 59.1652 27.3927C59.4142 27.7657 59.5452 28.2037 59.5412 28.6517Z" fill="#69C506"/>
<path d="M56.8732 11.7807H43.6042V5.0257C43.6042 3.9037 43.1582 2.8267 42.3642 2.0337C41.5702 1.2397 40.4942 0.793701 39.3712 0.793701C38.2492 0.793701 37.1722 1.2397 36.3792 2.0337C35.5852 2.8267 35.1392 3.9037 35.1392 5.0257V11.7807H21.8732C16.1092 11.7807 10.5812 14.0707 6.5052 18.1467C2.4302 22.2217 0.140198 27.7497 0.140198 33.5137C0.140198 39.2777 2.4302 44.8057 6.5052 48.8817C10.5812 52.9567 16.1092 55.2467 21.8732 55.2467H56.8732C62.6372 55.2467 68.1652 52.9567 72.2412 48.8817C76.3162 44.8057 78.6062 39.2777 78.6062 33.5137C78.6062 27.7497 76.3162 22.2217 72.2412 18.1467C68.1652 14.0707 62.6372 11.7807 56.8732 11.7807ZM56.8732 46.7817H21.8732C20.1292 46.7837 18.4032 46.4417 16.7922 45.7757C15.1812 45.1087 13.7172 44.1317 12.4832 42.8997C11.2502 41.6677 10.2722 40.2047 9.6042 38.5937C8.9372 36.9837 8.5932 35.2577 8.5932 33.5137C8.5932 31.7707 8.9372 30.0447 9.6042 28.4337C10.2722 26.8237 11.2502 25.3597 12.4832 24.1277C13.7172 22.8957 15.1812 21.9187 16.7922 21.2527C18.4032 20.5867 20.1292 20.2447 21.8732 20.2457H56.8732C60.3902 20.2497 63.7622 21.6487 66.2472 24.1367C68.7332 26.6237 70.1292 29.9967 70.1292 33.5137C70.1292 37.0307 68.7332 40.4037 66.2472 42.8917C63.7622 45.3797 60.3902 46.7787 56.8732 46.7817Z" fill="#111184"/>
<path d="M39.3742 79.5607C34.7042 79.5557 30.2262 77.6987 26.9242 74.3957C23.6222 71.0937 21.7642 66.6167 21.7592 61.9467C21.7592 60.8237 22.2052 59.7477 22.9992 58.9537C23.7922 58.1597 24.8692 57.7137 25.9912 57.7137C27.1142 57.7137 28.1912 58.1597 28.9842 58.9537C29.7782 59.7477 30.2242 60.8237 30.2242 61.9467C30.2242 63.1477 30.4612 64.3377 30.9202 65.4477C31.3802 66.5577 32.0542 67.5667 32.9042 68.4167C33.7532 69.2657 34.7622 69.9397 35.8722 70.3997C36.9822 70.8597 38.1722 71.0967 39.3742 71.0967C40.5752 71.0967 41.7652 70.8597 42.8752 70.3997C43.9852 69.9397 44.9942 69.2657 45.8432 68.4167C46.6932 67.5667 47.3672 66.5577 47.8272 65.4477C48.2872 64.3377 48.5232 63.1477 48.5232 61.9467C48.5232 60.8237 48.9692 59.7477 49.7632 58.9537C50.5572 58.1597 51.6332 57.7137 52.7562 57.7137C53.8782 57.7137 54.9552 58.1597 55.7492 58.9537C56.5422 59.7477 56.9882 60.8237 56.9882 61.9467C56.9832 66.6167 55.1252 71.0937 51.8232 74.3957C48.5212 77.6987 44.0442 79.5557 39.3742 79.5607Z" fill="#111184"/>
<path d="M110.082 15.8377H158.761V25.5737H139.289V64.5167H129.553V25.5737H110.082V15.8377Z" fill="#111184"/>
<path d="M178.917 64.5167V54.7807H188.348L178.917 30.4417L165.682 64.5167H154.578L174.049 15.8377H183.784L203.256 64.5167H178.917Z" fill="#69C506"/>
<path d="M261.67 25.5737H222.727V35.3087H261.67V64.5167H212.992V54.7807H251.933V45.0447H212.992V15.8377H261.67V25.5737Z" fill="#111184"/>
<path d="M271.405 64.5167V15.8377H281.141V35.3087L305.936 15.8377H320.084L290.876 40.7857L320.084 64.5167H305.784L281.141 45.0447V64.5167H271.405Z" fill="#111184"/>
<path d="M329.819 64.5167V15.8377H339.555L368.762 50.3687V15.8377H378.498V64.5167H368.762L339.555 31.0497V64.5167H329.819Z" fill="#111184"/>
<path d="M412.572 64.5167V54.7807H422.004L412.572 30.4417L399.338 64.5167H388.234L407.705 15.8377H417.441L436.912 64.5167H412.572Z" fill="#69C506"/>
<path d="M431.512 15.8377H480.19V25.5737H460.719V64.5167H450.984V25.5737H431.512V15.8377Z" fill="#111184"/>
<path d="M538.603 15.8377V25.5737H499.662V35.3087H538.603V45.0447H499.662V54.7807H538.603V64.5167H489.925V15.8377H538.603Z" fill="#111184"/>
</g>
</g>
<defs>
<clipPath id="clip0_109_888">
<rect width="539" height="81" fill="white" transform="translate(0.1492 0.293701)"/>
</clipPath>
<clipPath id="clip1_109_888">
<rect width="539" height="81" fill="white" transform="translate(0.1492 0.293701)"/>
</clipPath>
</defs>
</svg>
